<?xml version="1.0" encoding="utf-8"?>
<svg width="40" height="40" viewBox="0 0 40 40" fill="none" xmlns="http://www.w3.org/2000/svg">
  <g>
    <path d="M0 20C0 8.9543 8.9543 0 20 0C31.0457 0 40 8.9543 40 20C40 31.0457 31.0457 40 20 40C8.9543 40 0 31.0457 0 20Z" fill="#F1CB00" fill-rule="evenodd" />
    <g transform="translate(8 8)">
      <path d="M5.99592 1C6.7482 0.362975 7.83914 0 9 0C10.1609 0 11.2518 0.362975 12.0041 1L13 1C14.1046 1 15 1.89543 15 3L16 3C17.1046 3 18 3.89543 18 5L18 20C18 21.1046 17.1046 22 16 22L2 22C0.895431 22 0 21.1046 0 20L0 5C0 3.89543 0.895431 3 2 3L3 3C3 1.89543 3.89543 1 5 1L5.99592 1ZM6.85762 3L7.15665 2.65538C7.48519 2.27674 8.18941 2 9 2C9.81059 2 10.5148 2.27674 10.8434 2.65538L11.1424 3L13 3L13 4L5 4L5 3L6.85762 3ZM13 6C13.7403 6 14.3866 5.5978 14.7324 5L16 5L16 20L2 20L2 5L3.26756 5C3.61337 5.5978 4.25972 6 5 6L13 6ZM8 9L8 12L5 12L5 14L8 14L8 17L10 17L10 14L13 14L13 12L10 12L10 9L8 9Z" fill="#FFFFFF" fill-rule="evenodd" transform="translate(3 1)" />
    </g>
  </g>
</svg>