<?xml version="1.0" encoding="utf-8"?>
<svg width="40" height="40" viewBox="0 0 40 40" fill="none" xmlns="http://www.w3.org/2000/svg">
  <g>
    <path d="M0 20C0 8.9543 8.9543 0 20 0C31.0457 0 40 8.9543 40 20C40 31.0457 31.0457 40 20 40C8.9543 40 0 31.0457 0 20Z" fill="#F08A11" fill-rule="evenodd" />
    <g transform="translate(8 8)">
      <g transform="matrix(0.966 -0.259 0.259 0.966 0.581 3.622)">
        <path d="M1.09961 -0.9L0 -0.9Q-0.0886423 -0.9 -0.175581 -0.882707Q-0.26252 -0.865413 -0.344415 -0.831491Q-0.42631 -0.79757 -0.500013 -0.748323Q-0.573717 -0.699076 -0.636396 -0.636396Q-0.699076 -0.573717 -0.748323 -0.500013Q-0.79757 -0.42631 -0.831491 -0.344415Q-0.865413 -0.26252 -0.882707 -0.175581Q-0.9 -0.0886423 -0.9 0Q-0.9 0.0886423 -0.882707 0.175581Q-0.865413 0.26252 -0.831491 0.344415Q-0.79757 0.42631 -0.748323 0.500013Q-0.699076 0.573717 -0.636396 0.636396Q-0.573717 0.699076 -0.500013 0.748323Q-0.42631 0.79757 -0.344415 0.831491Q-0.26252 0.865413 -0.175581 0.882707Q-0.0886423 0.9 0 0.9L1.09961 0.9Q2.1 0.9 2.1 1.90039L2.1 15Q2.1 15.0886 2.11729 15.1756Q2.13459 15.2625 2.16851 15.3444Q2.20243 15.4263 2.25168 15.5Q2.30092 15.5737 2.3636 15.6364Q2.42628 15.6991 2.49999 15.7483Q2.57369 15.7976 2.65558 15.8315Q2.73748 15.8654 2.82442 15.8827Q2.91136 15.9 3 15.9Q3.08864 15.9 3.17558 15.8827Q3.26252 15.8654 3.34441 15.8315Q3.42631 15.7976 3.50001 15.7483Q3.57372 15.6991 3.6364 15.6364Q3.69908 15.5737 3.74832 15.5Q3.79757 15.4263 3.83149 15.3444Q3.86541 15.2625 3.88271 15.1756Q3.9 15.0886 3.9 15L3.9 1.90039Q3.9 -0.9 1.09961 -0.9ZM6 18.9L16.5 18.9Q16.5886 18.9 16.6756 18.8827Q16.7625 18.8654 16.8444 18.8315Q16.9263 18.7976 17 18.7483Q17.0737 18.6991 17.1364 18.6364Q17.1991 18.5737 17.2483 18.5Q17.2976 18.4263 17.3315 18.3444Q17.3654 18.2625 17.3827 18.1756Q17.4 18.0886 17.4 18Q17.4 17.9114 17.3827 17.8244Q17.3654 17.7375 17.3315 17.6556Q17.2976 17.5737 17.2483 17.5Q17.1991 17.4263 17.1364 17.3636Q17.0737 17.3009 17 17.2517Q16.9263 17.2024 16.8444 17.1685Q16.7625 17.1346 16.6756 17.1173Q16.5886 17.1 16.5 17.1L6 17.1Q5.91136 17.1 5.82442 17.1173Q5.73748 17.1346 5.65558 17.1685Q5.57369 17.2024 5.49999 17.2517Q5.42628 17.3009 5.3636 17.3636Q5.30092 17.4263 5.25168 17.5Q5.20243 17.5737 5.16851 17.6556Q5.13459 17.7375 5.11729 17.8244Q5.1 17.9114 5.1 18Q5.1 18.0886 5.11729 18.1756Q5.13459 18.2625 5.16851 18.3444Q5.20243 18.4263 5.25168 18.5Q5.30092 18.5737 5.3636 18.6364Q5.42628 18.6991 5.49999 18.7483Q5.57369 18.7976 5.65558 18.8315Q5.73748 18.8654 5.82442 18.8827Q5.91136 18.9 6 18.9ZM11.1 9.17082L11.1 11Q11.1 11.0886 11.1173 11.1756Q11.1346 11.2625 11.1685 11.3444Q11.2024 11.4263 11.2517 11.5Q11.3009 11.5737 11.3636 11.6364Q11.4263 11.6991 11.5 11.7483Q11.5737 11.7976 11.6556 11.8315Q11.7375 11.8654 11.8244 11.8827Q11.9114 11.9 12 11.9Q12.0886 11.9 12.1756 11.8827Q12.2625 11.8654 12.3444 11.8315Q12.4263 11.7976 12.5 11.7483Q12.5737 11.6991 12.6364 11.6364Q12.6991 11.5737 12.7483 11.5Q12.7976 11.4263 12.8315 11.3444Q12.8654 11.2625 12.8827 11.1756Q12.9 11.0886 12.9 11L12.9 8.88021Q12.9 7.75847 11.8636 7.32919Q10.8273 6.89992 10.0341 7.69311L9.8636 7.8636Q9.73702 7.99019 9.66851 8.15558Q9.6 8.32098 9.6 8.5Q9.6 8.67902 9.66851 8.84442Q9.73702 9.00981 9.8636 9.1364Q9.91646 9.18925 9.97731 9.23266Q10.0382 9.27608 10.1053 9.30885Q10.1725 9.34163 10.2442 9.36288Q10.3158 9.38412 10.39 9.39326Q10.4642 9.40239 10.5389 9.39916Q10.6136 9.39593 10.6867 9.38042Q10.7598 9.36492 10.8294 9.33756Q10.8989 9.3102 10.963 9.27174Q11.0363 9.22778 11.1 9.17082ZM11.3636 7.6364L12.8636 9.1364Q12.9263 9.19908 13 9.24832Q13.0737 9.29757 13.1556 9.33149Q13.2375 9.36541 13.3244 9.38271Q13.4114 9.4 13.5 9.4Q13.5886 9.4 13.6756 9.38271Q13.7625 9.36541 13.8444 9.33149Q13.9263 9.29757 14 9.24832Q14.0737 9.19908 14.1364 9.1364Q14.263 9.00981 14.3315 8.84441Q14.4 8.67902 14.4 8.5Q14.4 8.32098 14.3315 8.15559Q14.263 7.99019 14.1364 7.8636L12.6364 6.3636Q12.5737 6.30092 12.5 6.25168Q12.4263 6.20243 12.3444 6.16851Q12.2625 6.13459 12.1756 6.11729Q12.0886 6.1 12 6.1Q11.9114 6.1 11.8244 6.11729Q11.7375 6.13459 11.6556 6.16851Q11.5737 6.20243 11.5 6.25168Q11.4263 6.30092 11.3636 6.3636Q11.237 6.49019 11.1685 6.65558Q11.1 6.82098 11.1 7Q11.1 7.17902 11.1685 7.34441Q11.237 7.50981 11.3636 7.6364ZM6.71311 3.71311Q5.6 4.82622 5.6 6.40039L5.6 11.5996Q5.6 13.1738 6.71311 14.2869Q7.82622 15.4 9.40039 15.4L14.5996 15.4Q16.1738 15.4 17.2869 14.2869Q18.4 13.1738 18.4 11.5996L18.4 6.40039Q18.4 2.6 14.5996 2.6L9.40039 2.6Q7.82622 2.6 6.71311 3.71311ZM7.4 11.5996L7.4 6.40039Q7.4 4.4 9.40039 4.4L14.5996 4.4Q15.4282 4.4 16.0141 4.9859Q16.6 5.5718 16.6 6.40039L16.6 11.5996Q16.6 13.6 14.5996 13.6L9.40039 13.6Q8.5718 13.6 7.9859 13.0141Q7.4 12.4282 7.4 11.5996Z" fill="none" stroke-width="1.8" stroke="#FFFFFF" stroke-linecap="round" stroke-linejoin="round" />
        <path d="M0 3C0 1.34315 1.34315 0 3 0C4.65685 0 6 1.34315 6 3C6 4.65685 4.65685 6 3 6C1.34315 6 0 4.65685 0 3Z" fill="none" stroke-width="1.8" stroke="#FFFFFF" transform="translate(0 15)" />
      </g>
    </g>
  </g>
</svg>