<?xml version="1.0" encoding="utf-8"?>
<svg width="40" height="40" viewBox="0 0 40 40" fill="none" xmlns="http://www.w3.org/2000/svg">
  <g>
    <path d="M0 20C0 8.9543 8.9543 0 20 0C31.0457 0 40 8.9543 40 20C40 31.0457 31.0457 40 20 40C8.9543 40 0 31.0457 0 20Z" fill="#A35D0A" fill-rule="evenodd" />
    <g transform="translate(8 8)">
      <path d="M18 8.90762L18 17.5996Q18 17.693 17.9908 17.7859Q17.9817 17.8788 17.9635 17.9704Q17.9453 18.0619 17.9182 18.1513Q17.8911 18.2406 17.8553 18.3269Q17.8196 18.4131 17.7756 18.4954Q17.7316 18.5778 17.6797 18.6554Q17.6279 18.733 17.5686 18.8052Q17.5094 18.8774 17.4434 18.9434Q17.3774 19.0094 17.3052 19.0686Q17.233 19.1279 17.1554 19.1797Q17.0778 19.2316 16.9954 19.2756Q16.9131 19.3196 16.8269 19.3553Q16.7406 19.3911 16.6513 19.4182Q16.5619 19.4453 16.4704 19.4635Q16.3788 19.4817 16.2859 19.4909Q16.193 19.5 16.0996 19.5L14.4004 19.5Q14.307 19.5 14.2141 19.4909Q14.1212 19.4817 14.0296 19.4635Q13.9381 19.4453 13.8487 19.4182Q13.7594 19.3911 13.6731 19.3553Q13.5869 19.3196 13.5046 19.2756Q13.4222 19.2316 13.3446 19.1797Q13.267 19.1279 13.1948 19.0686Q13.1226 19.0094 13.0566 18.9434Q12.9906 18.8774 12.9314 18.8052Q12.8721 18.733 12.8203 18.6554Q12.7684 18.5778 12.7244 18.4954Q12.6804 18.4131 12.6447 18.3269Q12.6089 18.2406 12.5818 18.1513Q12.5547 18.0619 12.5365 17.9704Q12.5183 17.8788 12.5092 17.7859Q12.5 17.693 12.5 17.5996L12.5 14.4004Q12.5 14.2333 12.4836 14.0671Q12.4673 13.9008 12.4347 13.737Q12.4021 13.5732 12.3536 13.4133Q12.3051 13.2535 12.2412 13.0991Q12.1772 12.9448 12.0985 12.7975Q12.0197 12.6501 11.9269 12.5112Q11.8341 12.3723 11.7281 12.2432Q11.6222 12.1141 11.504 11.996Q11.3859 11.8778 11.2568 11.7719Q11.1277 11.6659 10.9888 11.5731Q10.8499 11.4803 10.7025 11.4015Q10.5552 11.3228 10.4009 11.2588Q10.2465 11.1949 10.0867 11.1464Q9.92683 11.0979 9.76299 11.0653Q9.59915 11.0327 9.43291 11.0164Q9.26666 11 9.09961 11L8.90039 11Q8.73334 11 8.56709 11.0164Q8.40085 11.0327 8.23701 11.0653Q8.07317 11.0979 7.91331 11.1464Q7.75345 11.1949 7.59912 11.2588Q7.44478 11.3228 7.29746 11.4015Q7.15013 11.4803 7.01123 11.5731Q6.87234 11.6659 6.74321 11.7719Q6.61407 11.8778 6.49595 11.996Q6.37783 12.1141 6.27185 12.2432Q6.16588 12.3723 6.07307 12.5112Q5.98026 12.6501 5.90151 12.7975Q5.82277 12.9448 5.75884 13.0991Q5.69491 13.2535 5.64642 13.4133Q5.59793 13.5732 5.56534 13.737Q5.53275 13.9008 5.51637 14.0671Q5.5 14.2333 5.5 14.4004L5.5 17.5996Q5.5 17.693 5.49085 17.7859Q5.4817 17.8788 5.46348 17.9704Q5.44527 18.0619 5.41817 18.1513Q5.39107 18.2406 5.35534 18.3269Q5.31961 18.4131 5.2756 18.4954Q5.23159 18.5778 5.17973 18.6554Q5.12786 18.733 5.06863 18.8052Q5.0094 18.8774 4.94339 18.9434Q4.87737 19.0094 4.8052 19.0686Q4.73304 19.1279 4.65541 19.1797Q4.57778 19.2316 4.49545 19.2756Q4.41311 19.3196 4.32686 19.3553Q4.2406 19.3911 4.15126 19.4182Q4.06192 19.4453 3.97036 19.4635Q3.87879 19.4817 3.78588 19.4909Q3.69297 19.5 3.59961 19.5L1.90039 19.5Q1.80703 19.5 1.71412 19.4909Q1.62121 19.4817 1.52964 19.4635Q1.43808 19.4453 1.34874 19.4182Q1.2594 19.3911 1.17314 19.3553Q1.08689 19.3196 1.00455 19.2756Q0.922216 19.2316 0.84459 19.1797Q0.766964 19.1279 0.694795 19.0686Q0.622627 19.0094 0.556611 18.9434Q0.490596 18.8774 0.431369 18.8052Q0.372142 18.733 0.320274 18.6554Q0.268405 18.5778 0.224396 18.4954Q0.180386 18.4131 0.144659 18.3269Q0.108931 18.2406 0.0818302 18.1513Q0.0547291 18.0619 0.0365155 17.9704Q0.0183018 17.8788 0.0091509 17.7859Q0 17.693 0 17.5996L0 8.90762Q0 8.6856 0.0251928 8.46502Q0.0503857 8.24444 0.100446 8.02815Q0.150506 7.81185 0.224787 7.60263Q0.299068 7.39341 0.39661 7.19398Q0.494152 6.99454 0.613696 6.80746Q0.733239 6.62037 0.873239 6.44807Q1.01324 6.27576 1.17189 6.12045Q1.33054 5.96514 1.50578 5.82884L6.60539 1.86247Q6.73266 1.76348 6.86767 1.67534Q7.00268 1.58719 7.14451 1.51048Q7.28633 1.43378 7.434 1.36904Q7.58167 1.30431 7.73418 1.25198Q7.88669 1.19965 8.043 1.16009Q8.19931 1.12053 8.35835 1.09401Q8.51739 1.06748 8.67808 1.05417Q8.83876 1.04086 9 1.04086Q9.16124 1.04086 9.32192 1.05417Q9.48261 1.06748 9.64165 1.09401Q9.80069 1.12053 9.957 1.16009Q10.1133 1.19965 10.2658 1.25198Q10.4183 1.30431 10.566 1.36904Q10.7137 1.43378 10.8555 1.51048Q10.9973 1.58719 11.1323 1.67534Q11.2673 1.76348 11.3946 1.86247L16.4942 5.82884Q16.6695 5.96514 16.8281 6.12045Q16.9868 6.27576 17.1268 6.44807Q17.2668 6.62037 17.3863 6.80746Q17.5058 6.99454 17.6034 7.19398Q17.7009 7.39341 17.7752 7.60263Q17.8495 7.81185 17.8996 8.02815Q17.9496 8.24444 17.9748 8.46502Q18 8.6856 18 8.90762Z" fill="none" stroke-width="1.8" stroke="#FFFFFF" transform="translate(3 2)" />
    </g>
  </g>
</svg>